inDegrees=yes
name=ik_S49_A10_T01
DataType=double
version=3
OpenSimVersion=4.3-2021-08-27-4bc7ad9
endheader
time	pelvis_tilt	pelvis_list	pelvis_rotation	pelvis_tx	pelvis_ty	pelvis_tz	hip_flexion_r	hip_adduction_r	hip_rotation_r	knee_angle_r	knee_angle_r_beta	ankle_angle_r	subtalar_angle_r	mtp_angle_r	hip_flexion_l	hip_adduction_l	hip_rotation_l	knee_angle_l	knee_angle_l_beta	ankle_angle_l	subtalar_angle_l	mtp_angle_l	lumbar_extension	lumbar_bending	lumbar_rotation	arm_flex_r	arm_add_r	arm_rot_r	elbow_flex_r	pro_sup_r	wrist_flex_r	wrist_dev_r	arm_flex_l	arm_add_l	arm_rot_l	elbow_flex_l	pro_sup_l	wrist_flex_l	wrist_dev_l
0	0	0	0	0	0.9399999999999999	0	0	0	0	0	0	0	0	0	0	0	0	0	0	0	0	0	0	0	0	0	0	0	0	89.99999999963507	0	0	0	0	0	0	89.99999999869995	0	0
0.02	-0.9380398852385763	-0.566069126624528	23.61541136399914	0	0.9399999999999999	0	1.966012256618966	-0.9148560810306218	-0.6610029236619205	3.063358837459134	0.05346569788372769	0	0	0	1.966012256618966	-0.9148560810306218	-0.6610029236619205	3.063358837459134	0.05346569788372769	0	0	0	-1.059294268917611	0.8895023481983684	10.22046717748909	11.17736308884232	4.553646522200015	1.311875741709447	14.0493277349739	92.11705143111413	0	0	13.01220858529353	5.593926676652714	8.480601759658636	10.10784870213222	78.83151223023589	0	0
0.04	-0.9751346305405717	-0.5422784150013795	23.82326725757558	0	0.9399999999999999	0	4.247024709222353	-1.99755980597105	-1.479707680115362	5.596283395738968	0.0976735711303338	0	0	0	4.247024709222353	-1.99755980597105	-1.479707680115362	5.596283395738968	0.0976735711303338	0	0	0	-1.032686605182089	0.8452742706490521	9.986467957606893	11.17386852127226	4.576841674285722	1.329612345179871	14.04571671481877	92.09929106442773	0	0	12.98966849722608	5.567151430619754	8.496282540425499	10.21964477843935	78.86115840631956	0	0
0.06	-0.9983649166157071	-0.5474275109866864	23.83011158986218	0	0.9399999999999999	0	4.310168889136553	-2.032487164334747	-1.502034000809976	5.682461944417944	0.09917767054937213	0	0	0	4.310168889136553	-2.032487164334747	-1.502034000809976	5.682461944417944	0.09917767054937213	0	0	0	-1.055751027714546	0.8491909123748502	9.985852330303157	11.21383922557658	4.559354815358176	1.339732580424276	14.05952691529969	92.08183957154303	0	0	13.01785478570297	5.595443554464302	8.509485207666618	10.2375528954483	78.83939199977982	0	0
0.08	-1.001267452559772	-0.5513896088443485	23.85868258556827	0	0.9399999999999999	0	4.547996394990782	-2.123179380688481	-1.588346643923567	5.819387701211478	0.1015674758362043	0	0	0	4.547996394990782	-2.123179380688481	-1.588346643923567	5.819387701211478	0.1015674758362043	0	0	0	-1.06084063431523	0.8418937282529053	9.945058289452929	11.21157474047595	4.567882393724035	1.376518009599646	14.0904252301642	92.04657967863241	0	0	13.01480343562785	5.594693538176237	8.53062649938731	10.23686940093246	78.80959080001581	0	0
0.1	-1.005745051340017	-0.5493544304936061	23.88033504795481	0	0.9399999999999999	0	4.767106351234046	-2.204321996299601	-1.667994704092369	5.929537866819254	0.103489958897677	0	0	0	4.767106351234046	-2.204321996299601	-1.667994704092369	5.929537866819254	0.103489958897677	0	0	0	-1.064645254372753	0.8407692880147658	9.905681936494023	11.22490980620468	4.570342604881473	1.387032190386148	14.05335053599638	92.04008209882311	0	0	13.00532290559015	5.611481640530441	8.548125026667408	10.2022865621039	78.7861287803383	0	0
0.12	-1.026911965197996	-0.5424433831870124	24.09372927293576	0	0.9399999999999999	0	6.353937223501576	-2.869817295458747	-2.216003357318789	7.458228007694826	0.1301706350987317	0	0	0	6.353937223501576	-2.869817295458747	-2.216003357318789	7.458228007694826	0.1301706350987317	0	0	0	-1.080950911164803	0.8281224081300486	9.696454011462022	11.24848158370098	4.547026908107122	1.374009817473287	14.0529080764783	92.05165573844859	0	0	13.02256952173792	5.610897333592467	8.560595250292305	10.2803556956393	78.79674790705373	0	0
0.14	-1.022353264832937	-0.5394639171823935	24.11356916851357	0	0.9399999999999999	0	6.538236588884476	-2.939123418464215	-2.279584927016307	7.593463020371916	0.1325309313339232	0	0	0	6.538236588884476	-2.939123418464215	-2.279584927016307	7.593463020371916	0.1325309313339232	0	0	0	-1.075916954628373	0.8255422359724244	9.668014201785921	11.22067878496175	4.559460151585815	1.37946560805512	14.06800110489439	92.03871047611223	0	0	12.98373139573908	5.580752743426831	8.570651504597746	10.29485372498639	78.78298584662255	0	0
0.16	-1.028468518050334	-0.5406230173615665	24.12940656075272	0	0.9399999999999999	0	6.635101955418247	-2.974854965617175	-2.312608273010087	7.665890965866363	0.1337950374532563	0	0	0	6.635101955418247	-2.974854965617175	-2.312608273010087	7.665890965866363	0.1337950374532563	0	0	0	-1.081925645957877	0.8248982930480697	9.652850994427558	11.2169524221114	4.539601614344707	1.355651221766148	14.05645455362351	92.04480133790601	0	0	12.98546919243845	5.579902885351407	8.566730582791072	10.24015301229402	78.75641385681627	0	0
0.18	-1.042630799258954	-0.5395188469976732	24.14840808206817	0	0.9399999999999999	0	6.812548176812048	-3.039041323144782	-2.373345570783357	7.789385084301781	0.1359504164268021	0	0	0	6.812548176812048	-3.039041323144782	-2.373345570783357	7.789385084301781	0.1359504164268021	0	0	0	-1.094727861900365	0.8282831899678526	9.622857296793578	11.23581908141576	4.531515883046994	1.371026161019828	14.04463562506363	92.04496430132552	0	0	13.00834790419837	5.584900841066831	8.570827085617658	10.21771655752647	78.73367102573764	0	0
0.2	-1.045224583943876	-0.5381854939925232	24.16767774489103	0	0.9399999999999999	0	6.919218270471722	-3.075382630811404	-2.409222839701713	7.861446257063228	0.1372081211543379	0	0	0	6.919218270471722	-3.075382630811404	-2.409222839701713	7.861446257063228	0.1372081211543379	0	0	0	-1.096563500174677	0.8280254044846438	9.608630767621028	11.15787965960224	4.532624753860335	1.385302069736944	14.02802067694595	92.04822211493294	0	0	13.02303334746335	5.589728748678201	8.637689152201139	10.14233169291514	78.68721471065101	0	0
0.22	-1.05172983463152	-0.5402279967504129	24.18005067354929	0	0.9399999999999999	0	7.027012638487798	-3.119991370824374	-2.44589603410128	7.964396180912793	0.1390049362901902	0	0	0	7.027012638487798	-3.119991370824374	-2.44589603410128	7.964396180912793	0.1390049362901902	0	0	0	-1.103400911176047	0.8268679450348325	9.592810663863398	11.12253526373852	4.537724208966277	1.403597613836269	14.09507089500926	92.01878251160862	0	0	13.01011418601178	5.589524721094874	8.659157482980559	10.19423736068334	78.65296777875459	0	0
0.24	-1.050472492734514	-0.5427088660612538	24.19982278350909	0	0.9399999999999999	0	7.17001550277799	-3.171722090577741	-2.493722084843922	8.077666871352994	0.140981882784379	0	0	0	7.17001550277799	-3.171722090577741	-2.493722084843922	8.077666871352994	0.140981882784379	0	0	0	-1.103487752860989	0.8213020232602981	9.580113424989817	11.07729783517658	4.550100856192482	1.421376464698705	14.11259775443361	91.9761975665424	0	0	13.01637118340954	5.566184108809331	8.66144863286574	10.19060524990194	78.64555656941003	0	0
0.26	-1.048663943551059	-0.5416894179738031	24.20913739999709	0	0.9399999999999999	0	7.255382160004288	-3.204666612857945	-2.522509565154706	8.151002118622285	0.1422618243069923	0	0	0	7.255382160004288	-3.204666612857945	-2.522509565154706	8.151002118622285	0.1422618243069923	0	0	0	-1.101595871515179	0.8200246322917032	9.571075140805803	11.04034627286122	4.544811797708905	1.43302564003734	14.11832666089152	91.94115336685125	0	0	13.01640643066862	5.552972984501075	8.656583193851652	10.18385323448332	78.61716750466707	0	0
